<mxfile host="app.diagrams.net" agent="Mozilla/5.0 (Windows NT 10.0; Win64; x64) AppleWebKit/537.36 (KHTML, like Gecko) Chrome/140.0.0.0 Safari/537.36" version="28.2.2">
  <diagram name="Page-1" id="aU8o1iqLWX59PyhMd0SS">
    <mxGraphModel dx="376" dy="628" grid="1" gridSize="10" guides="1" tooltips="1" connect="1" arrows="1" fold="1" page="1" pageScale="1" pageWidth="850" pageHeight="1100" math="0" shadow="0">
      <root>
        <mxCell id="0" />
        <mxCell id="1" parent="0" />
        <mxCell id="92fIwMlYuSyO-Rn_pStM-67" value="" style="edgeStyle=orthogonalEdgeStyle;rounded=0;orthogonalLoop=1;jettySize=auto;html=1;" edge="1" parent="1" source="92fIwMlYuSyO-Rn_pStM-52" target="92fIwMlYuSyO-Rn_pStM-53">
          <mxGeometry relative="1" as="geometry" />
        </mxCell>
        <mxCell id="92fIwMlYuSyO-Rn_pStM-52" value="Start" style="ellipse;whiteSpace=wrap;html=1;" vertex="1" parent="1">
          <mxGeometry x="1440" y="120" width="160" height="40" as="geometry" />
        </mxCell>
        <mxCell id="92fIwMlYuSyO-Rn_pStM-68" value="" style="edgeStyle=orthogonalEdgeStyle;rounded=0;orthogonalLoop=1;jettySize=auto;html=1;" edge="1" parent="1" source="92fIwMlYuSyO-Rn_pStM-53" target="92fIwMlYuSyO-Rn_pStM-54">
          <mxGeometry relative="1" as="geometry" />
        </mxCell>
        <mxCell id="92fIwMlYuSyO-Rn_pStM-53" value="Homepage" style="rounded=0;whiteSpace=wrap;html=1;" vertex="1" parent="1">
          <mxGeometry x="1440" y="200" width="160" height="40" as="geometry" />
        </mxCell>
        <mxCell id="92fIwMlYuSyO-Rn_pStM-54" value="About Page" style="rounded=0;whiteSpace=wrap;html=1;" vertex="1" parent="1">
          <mxGeometry x="1440" y="280" width="160" height="40" as="geometry" />
        </mxCell>
        <mxCell id="92fIwMlYuSyO-Rn_pStM-96" value="" style="edgeStyle=orthogonalEdgeStyle;rounded=0;orthogonalLoop=1;jettySize=auto;html=1;" edge="1" parent="1" source="92fIwMlYuSyO-Rn_pStM-55" target="92fIwMlYuSyO-Rn_pStM-57">
          <mxGeometry relative="1" as="geometry" />
        </mxCell>
        <mxCell id="92fIwMlYuSyO-Rn_pStM-55" value="Registration Page" style="rounded=0;whiteSpace=wrap;html=1;" vertex="1" parent="1">
          <mxGeometry x="1880" y="240" width="160" height="40" as="geometry" />
        </mxCell>
        <mxCell id="92fIwMlYuSyO-Rn_pStM-56" value="Profile Page" style="rounded=0;whiteSpace=wrap;html=1;" vertex="1" parent="1">
          <mxGeometry x="1690" y="480" width="160" height="40" as="geometry" />
        </mxCell>
        <mxCell id="92fIwMlYuSyO-Rn_pStM-57" value="Enter your details" style="shape=parallelogram;perimeter=parallelogramPerimeter;whiteSpace=wrap;html=1;fixedSize=1;" vertex="1" parent="1">
          <mxGeometry x="1880" y="320" width="160" height="40" as="geometry" />
        </mxCell>
        <mxCell id="92fIwMlYuSyO-Rn_pStM-80" value="" style="edgeStyle=orthogonalEdgeStyle;rounded=0;orthogonalLoop=1;jettySize=auto;html=1;" edge="1" parent="1" source="92fIwMlYuSyO-Rn_pStM-58" target="92fIwMlYuSyO-Rn_pStM-62">
          <mxGeometry relative="1" as="geometry" />
        </mxCell>
        <mxCell id="92fIwMlYuSyO-Rn_pStM-58" value="Login Page" style="rounded=0;whiteSpace=wrap;html=1;" vertex="1" parent="1">
          <mxGeometry x="1440" y="360" width="160" height="40" as="geometry" />
        </mxCell>
        <mxCell id="92fIwMlYuSyO-Rn_pStM-59" value="View Stats" style="rounded=0;whiteSpace=wrap;html=1;" vertex="1" parent="1">
          <mxGeometry x="1640" y="600" width="160" height="40" as="geometry" />
        </mxCell>
        <mxCell id="92fIwMlYuSyO-Rn_pStM-60" value="Delete Stats" style="rounded=0;whiteSpace=wrap;html=1;" vertex="1" parent="1">
          <mxGeometry x="1840" y="600" width="160" height="40" as="geometry" />
        </mxCell>
        <mxCell id="92fIwMlYuSyO-Rn_pStM-61" value="Modify Username/Email/Password" style="rounded=0;whiteSpace=wrap;html=1;" vertex="1" parent="1">
          <mxGeometry x="2040" y="600" width="160" height="40" as="geometry" />
        </mxCell>
        <mxCell id="92fIwMlYuSyO-Rn_pStM-83" value="" style="edgeStyle=orthogonalEdgeStyle;rounded=0;orthogonalLoop=1;jettySize=auto;html=1;" edge="1" parent="1" source="92fIwMlYuSyO-Rn_pStM-62" target="92fIwMlYuSyO-Rn_pStM-65">
          <mxGeometry relative="1" as="geometry" />
        </mxCell>
        <mxCell id="92fIwMlYuSyO-Rn_pStM-62" value="Enter Email &amp;amp; Password" style="shape=parallelogram;perimeter=parallelogramPerimeter;whiteSpace=wrap;html=1;fixedSize=1;" vertex="1" parent="1">
          <mxGeometry x="1440" y="440" width="160" height="40" as="geometry" />
        </mxCell>
        <mxCell id="92fIwMlYuSyO-Rn_pStM-73" value="" style="edgeStyle=orthogonalEdgeStyle;rounded=0;orthogonalLoop=1;jettySize=auto;html=1;" edge="1" parent="1" source="92fIwMlYuSyO-Rn_pStM-63" target="92fIwMlYuSyO-Rn_pStM-64">
          <mxGeometry relative="1" as="geometry" />
        </mxCell>
        <mxCell id="92fIwMlYuSyO-Rn_pStM-74" value="Yes" style="edgeLabel;html=1;align=center;verticalAlign=middle;resizable=0;points=[];" vertex="1" connectable="0" parent="92fIwMlYuSyO-Rn_pStM-73">
          <mxGeometry x="-0.2538" y="2" relative="1" as="geometry">
            <mxPoint x="-2" y="5" as="offset" />
          </mxGeometry>
        </mxCell>
        <mxCell id="92fIwMlYuSyO-Rn_pStM-76" value="" style="edgeStyle=orthogonalEdgeStyle;rounded=0;orthogonalLoop=1;jettySize=auto;html=1;" edge="1" parent="1" source="92fIwMlYuSyO-Rn_pStM-63" target="92fIwMlYuSyO-Rn_pStM-55">
          <mxGeometry relative="1" as="geometry" />
        </mxCell>
        <mxCell id="92fIwMlYuSyO-Rn_pStM-77" value="No" style="edgeLabel;html=1;align=center;verticalAlign=middle;resizable=0;points=[];" vertex="1" connectable="0" parent="92fIwMlYuSyO-Rn_pStM-76">
          <mxGeometry x="-0.1055" relative="1" as="geometry">
            <mxPoint x="1" as="offset" />
          </mxGeometry>
        </mxCell>
        <mxCell id="92fIwMlYuSyO-Rn_pStM-63" value="Registered?" style="rhombus;whiteSpace=wrap;html=1;" vertex="1" parent="1">
          <mxGeometry x="1730" y="220" width="80" height="80" as="geometry" />
        </mxCell>
        <mxCell id="92fIwMlYuSyO-Rn_pStM-81" value="" style="edgeStyle=orthogonalEdgeStyle;rounded=0;orthogonalLoop=1;jettySize=auto;html=1;" edge="1" parent="1" source="92fIwMlYuSyO-Rn_pStM-64" target="92fIwMlYuSyO-Rn_pStM-56">
          <mxGeometry relative="1" as="geometry" />
        </mxCell>
        <mxCell id="92fIwMlYuSyO-Rn_pStM-82" value="Yes" style="edgeLabel;html=1;align=center;verticalAlign=middle;resizable=0;points=[];" vertex="1" connectable="0" parent="92fIwMlYuSyO-Rn_pStM-81">
          <mxGeometry x="0.0513" relative="1" as="geometry">
            <mxPoint y="-1" as="offset" />
          </mxGeometry>
        </mxCell>
        <mxCell id="92fIwMlYuSyO-Rn_pStM-64" value="Logged In?" style="rhombus;whiteSpace=wrap;html=1;" vertex="1" parent="1">
          <mxGeometry x="1730" y="340" width="80" height="80" as="geometry" />
        </mxCell>
        <mxCell id="92fIwMlYuSyO-Rn_pStM-65" value="Correct Credentials?" style="rhombus;whiteSpace=wrap;html=1;" vertex="1" parent="1">
          <mxGeometry x="1480" y="520" width="80" height="80" as="geometry" />
        </mxCell>
        <mxCell id="92fIwMlYuSyO-Rn_pStM-66" value="Stop" style="ellipse;whiteSpace=wrap;html=1;" vertex="1" parent="1">
          <mxGeometry x="1440" y="680" width="160" height="50" as="geometry" />
        </mxCell>
        <mxCell id="92fIwMlYuSyO-Rn_pStM-69" value="" style="endArrow=classic;html=1;rounded=0;exitX=1;exitY=0.5;exitDx=0;exitDy=0;entryX=0;entryY=0.5;entryDx=0;entryDy=0;" edge="1" parent="1" source="92fIwMlYuSyO-Rn_pStM-53" target="92fIwMlYuSyO-Rn_pStM-63">
          <mxGeometry width="50" height="50" relative="1" as="geometry">
            <mxPoint x="1800" y="440" as="sourcePoint" />
            <mxPoint x="1850" y="390" as="targetPoint" />
            <Array as="points">
              <mxPoint x="1680" y="220" />
              <mxPoint x="1680" y="260" />
            </Array>
          </mxGeometry>
        </mxCell>
        <mxCell id="92fIwMlYuSyO-Rn_pStM-70" value="" style="endArrow=classic;html=1;rounded=0;exitX=1;exitY=0.5;exitDx=0;exitDy=0;entryX=0;entryY=0.5;entryDx=0;entryDy=0;" edge="1" parent="1" source="92fIwMlYuSyO-Rn_pStM-54" target="92fIwMlYuSyO-Rn_pStM-63">
          <mxGeometry width="50" height="50" relative="1" as="geometry">
            <mxPoint x="1790" y="490" as="sourcePoint" />
            <mxPoint x="1840" y="440" as="targetPoint" />
            <Array as="points">
              <mxPoint x="1680" y="300" />
              <mxPoint x="1680" y="260" />
            </Array>
          </mxGeometry>
        </mxCell>
        <mxCell id="92fIwMlYuSyO-Rn_pStM-75" value="No" style="endArrow=classic;html=1;rounded=0;exitX=0;exitY=0.5;exitDx=0;exitDy=0;entryX=1;entryY=0.5;entryDx=0;entryDy=0;" edge="1" parent="1" source="92fIwMlYuSyO-Rn_pStM-64" target="92fIwMlYuSyO-Rn_pStM-58">
          <mxGeometry width="50" height="50" relative="1" as="geometry">
            <mxPoint x="1590" y="490" as="sourcePoint" />
            <mxPoint x="1640" y="440" as="targetPoint" />
          </mxGeometry>
        </mxCell>
        <mxCell id="92fIwMlYuSyO-Rn_pStM-84" value="" style="endArrow=classic;html=1;rounded=0;exitX=0;exitY=0.5;exitDx=0;exitDy=0;entryX=0;entryY=0.5;entryDx=0;entryDy=0;" edge="1" parent="1" source="92fIwMlYuSyO-Rn_pStM-65" target="92fIwMlYuSyO-Rn_pStM-58">
          <mxGeometry width="50" height="50" relative="1" as="geometry">
            <mxPoint x="1250" y="550" as="sourcePoint" />
            <mxPoint x="1400" y="380" as="targetPoint" />
            <Array as="points">
              <mxPoint x="1400" y="560" />
              <mxPoint x="1400" y="380" />
            </Array>
          </mxGeometry>
        </mxCell>
        <mxCell id="92fIwMlYuSyO-Rn_pStM-85" value="No" style="edgeLabel;html=1;align=center;verticalAlign=middle;resizable=0;points=[];" vertex="1" connectable="0" parent="92fIwMlYuSyO-Rn_pStM-84">
          <mxGeometry x="0.1825" relative="1" as="geometry">
            <mxPoint y="1" as="offset" />
          </mxGeometry>
        </mxCell>
        <mxCell id="92fIwMlYuSyO-Rn_pStM-86" value="" style="endArrow=classic;html=1;rounded=0;entryX=0;entryY=0.5;entryDx=0;entryDy=0;exitX=1;exitY=0.5;exitDx=0;exitDy=0;" edge="1" parent="1" source="92fIwMlYuSyO-Rn_pStM-65" target="92fIwMlYuSyO-Rn_pStM-56">
          <mxGeometry width="50" height="50" relative="1" as="geometry">
            <mxPoint x="1520" y="560" as="sourcePoint" />
            <mxPoint x="1570" y="510" as="targetPoint" />
            <Array as="points">
              <mxPoint x="1640" y="560" />
              <mxPoint x="1640" y="500" />
            </Array>
          </mxGeometry>
        </mxCell>
        <mxCell id="92fIwMlYuSyO-Rn_pStM-98" value="Yes" style="edgeLabel;html=1;align=center;verticalAlign=middle;resizable=0;points=[];" vertex="1" connectable="0" parent="92fIwMlYuSyO-Rn_pStM-86">
          <mxGeometry x="0.1096" y="2" relative="1" as="geometry">
            <mxPoint as="offset" />
          </mxGeometry>
        </mxCell>
        <mxCell id="92fIwMlYuSyO-Rn_pStM-87" value="" style="endArrow=classic;html=1;rounded=0;exitX=0.5;exitY=1;exitDx=0;exitDy=0;entryX=0.5;entryY=0;entryDx=0;entryDy=0;" edge="1" parent="1" source="92fIwMlYuSyO-Rn_pStM-56" target="92fIwMlYuSyO-Rn_pStM-59">
          <mxGeometry width="50" height="50" relative="1" as="geometry">
            <mxPoint x="1830" y="760" as="sourcePoint" />
            <mxPoint x="1880" y="710" as="targetPoint" />
            <Array as="points">
              <mxPoint x="1770" y="560" />
              <mxPoint x="1720" y="560" />
            </Array>
          </mxGeometry>
        </mxCell>
        <mxCell id="92fIwMlYuSyO-Rn_pStM-88" value="" style="endArrow=classic;html=1;rounded=0;exitX=0.5;exitY=1;exitDx=0;exitDy=0;entryX=0.5;entryY=0;entryDx=0;entryDy=0;" edge="1" parent="1" source="92fIwMlYuSyO-Rn_pStM-56" target="92fIwMlYuSyO-Rn_pStM-60">
          <mxGeometry width="50" height="50" relative="1" as="geometry">
            <mxPoint x="1950" y="780" as="sourcePoint" />
            <mxPoint x="2000" y="730" as="targetPoint" />
            <Array as="points">
              <mxPoint x="1770" y="560" />
              <mxPoint x="1920" y="560" />
            </Array>
          </mxGeometry>
        </mxCell>
        <mxCell id="92fIwMlYuSyO-Rn_pStM-89" value="" style="endArrow=classic;html=1;rounded=0;entryX=0.5;entryY=0;entryDx=0;entryDy=0;exitX=0.5;exitY=1;exitDx=0;exitDy=0;" edge="1" parent="1" source="92fIwMlYuSyO-Rn_pStM-56" target="92fIwMlYuSyO-Rn_pStM-61">
          <mxGeometry width="50" height="50" relative="1" as="geometry">
            <mxPoint x="2020" y="540" as="sourcePoint" />
            <mxPoint x="2070" y="490" as="targetPoint" />
            <Array as="points">
              <mxPoint x="1770" y="560" />
              <mxPoint x="1920" y="560" />
              <mxPoint x="2120" y="560" />
            </Array>
          </mxGeometry>
        </mxCell>
        <mxCell id="92fIwMlYuSyO-Rn_pStM-91" value="" style="endArrow=classic;html=1;rounded=0;exitX=0;exitY=0.5;exitDx=0;exitDy=0;entryX=0;entryY=0.5;entryDx=0;entryDy=0;" edge="1" parent="1" source="92fIwMlYuSyO-Rn_pStM-53" target="92fIwMlYuSyO-Rn_pStM-66">
          <mxGeometry width="50" height="50" relative="1" as="geometry">
            <mxPoint x="1270" y="620" as="sourcePoint" />
            <mxPoint x="1320" y="570" as="targetPoint" />
            <Array as="points">
              <mxPoint x="1280" y="220" />
              <mxPoint x="1280" y="705" />
            </Array>
          </mxGeometry>
        </mxCell>
        <mxCell id="92fIwMlYuSyO-Rn_pStM-92" value="" style="endArrow=classic;html=1;rounded=0;exitX=0;exitY=0.5;exitDx=0;exitDy=0;entryX=0;entryY=0.5;entryDx=0;entryDy=0;" edge="1" parent="1" source="92fIwMlYuSyO-Rn_pStM-54" target="92fIwMlYuSyO-Rn_pStM-66">
          <mxGeometry width="50" height="50" relative="1" as="geometry">
            <mxPoint x="1180" y="650" as="sourcePoint" />
            <mxPoint x="1230" y="600" as="targetPoint" />
            <Array as="points">
              <mxPoint x="1280" y="300" />
              <mxPoint x="1280" y="705" />
            </Array>
          </mxGeometry>
        </mxCell>
        <mxCell id="92fIwMlYuSyO-Rn_pStM-93" value="" style="endArrow=classic;html=1;rounded=0;exitX=0.5;exitY=1;exitDx=0;exitDy=0;entryX=1;entryY=0.5;entryDx=0;entryDy=0;" edge="1" parent="1" source="92fIwMlYuSyO-Rn_pStM-59" target="92fIwMlYuSyO-Rn_pStM-66">
          <mxGeometry width="50" height="50" relative="1" as="geometry">
            <mxPoint x="1820" y="780" as="sourcePoint" />
            <mxPoint x="1870" y="730" as="targetPoint" />
            <Array as="points">
              <mxPoint x="1720" y="705" />
            </Array>
          </mxGeometry>
        </mxCell>
        <mxCell id="92fIwMlYuSyO-Rn_pStM-94" value="" style="endArrow=classic;html=1;rounded=0;exitX=0.5;exitY=1;exitDx=0;exitDy=0;entryX=1;entryY=0.5;entryDx=0;entryDy=0;" edge="1" parent="1" source="92fIwMlYuSyO-Rn_pStM-60" target="92fIwMlYuSyO-Rn_pStM-66">
          <mxGeometry width="50" height="50" relative="1" as="geometry">
            <mxPoint x="2020" y="850" as="sourcePoint" />
            <mxPoint x="2070" y="800" as="targetPoint" />
            <Array as="points">
              <mxPoint x="1920" y="705" />
            </Array>
          </mxGeometry>
        </mxCell>
        <mxCell id="92fIwMlYuSyO-Rn_pStM-95" value="" style="endArrow=classic;html=1;rounded=0;exitX=0.5;exitY=1;exitDx=0;exitDy=0;entryX=1;entryY=0.5;entryDx=0;entryDy=0;" edge="1" parent="1" source="92fIwMlYuSyO-Rn_pStM-61" target="92fIwMlYuSyO-Rn_pStM-66">
          <mxGeometry width="50" height="50" relative="1" as="geometry">
            <mxPoint x="2240" y="790" as="sourcePoint" />
            <mxPoint x="2290" y="740" as="targetPoint" />
            <Array as="points">
              <mxPoint x="2120" y="705" />
            </Array>
          </mxGeometry>
        </mxCell>
        <mxCell id="92fIwMlYuSyO-Rn_pStM-97" value="" style="endArrow=classic;html=1;rounded=0;exitX=1;exitY=0.5;exitDx=0;exitDy=0;entryX=0.5;entryY=0;entryDx=0;entryDy=0;" edge="1" parent="1" source="92fIwMlYuSyO-Rn_pStM-57" target="92fIwMlYuSyO-Rn_pStM-63">
          <mxGeometry width="50" height="50" relative="1" as="geometry">
            <mxPoint x="2160" y="420" as="sourcePoint" />
            <mxPoint x="2220" y="110" as="targetPoint" />
            <Array as="points">
              <mxPoint x="2120" y="340" />
              <mxPoint x="2120" y="160" />
              <mxPoint x="1770" y="160" />
            </Array>
          </mxGeometry>
        </mxCell>
      </root>
    </mxGraphModel>
  </diagram>
</mxfile>
